<?xml version="1.0" encoding="utf-8"?>
<!-- Svg Vector Icons : http://www.onlinewebfonts.com/icon -->
<!DOCTYPE svg PUBLIC "-//W3C//DTD SVG 1.1//EN" "http://www.w3.org/Graphics/SVG/1.1/DTD/svg11.dtd">
<svg version="1.1" xmlns="http://www.w3.org/2000/svg" xmlns:xlink="http://www.w3.org/1999/xlink" x="0px" y="0px" viewBox="0 0 1000 1000" enable-background="new 0 0 1000 1000" xml:space="preserve">
<metadata> Svg Vector Icons : http://www.onlinewebfonts.com/icon </metadata>
<g><path fill='#fff' d="M859.3,944.3c46.8,0,84.9-38.1,84.9-84.9V140.7c0-46.8-38.1-84.9-84.9-84.9H140.7c-46.8,0-84.9,38.1-84.9,84.9v718.6c0,46.8,38.1,84.9,84.9,84.9H859.3 M859.3,990H140.7C68.5,990,10,931.5,10,859.3V140.7C10,68.5,68.5,10,140.7,10h718.6C931.5,10,990,68.5,990,140.7v718.6C990,931.5,931.5,990,859.3,990L859.3,990L859.3,990z"/>
<path fill='#fff' d="M740.7,385.4c69.5,0,126.1-56.6,126.1-126.1c0-69.5-56.5-126.1-126.1-126.1c-69.5,0-126.1,56.6-126.1,126.1c0,6.2,0.6,12.2,1.5,18.1L351,379.4c-23-24.4-55.5-39.8-91.7-39.8c-69.5,0-126.1,56.6-126.1,126.1c0,69.5,56.5,126.1,126.1,126.1c27.1,0,52.2-8.7,72.7-23.3l179.5,119.7c-7.4,16-11.6,33.8-11.6,52.6c0,69.5,56.5,126.1,126.1,126.1c69.5,0,126.1-56.6,126.1-126.1c0-69.5-56.6-126.1-126.1-126.1c-34.3,0-65.3,13.8-88,36L364.5,534.9c13.2-19.9,20.9-43.7,20.9-69.3c0-16.6-3.3-32.3-9.1-46.9l254.5-97.9C652.4,359.3,693.5,385.4,740.7,385.4L740.7,385.4z M259.3,545.8c-44.2,0-80.2-36-80.2-80.2c0-44.2,36-80.2,80.2-80.2c44.2,0,80.2,36,80.2,80.2C339.6,509.9,303.6,545.8,259.3,545.8L259.3,545.8z M626.1,660.4c44.2,0,80.2,36,80.2,80.2c0,44.2-36,80.2-80.2,80.2c-44.2,0-80.2-36-80.2-80.2C545.8,696.4,581.8,660.4,626.1,660.4L626.1,660.4z M740.7,179.1c44.2,0,80.2,36,80.2,80.2c0,44.2-36,80.2-80.2,80.2c-44.2,0-80.2-36-80.2-80.2C660.4,215.1,696.4,179.1,740.7,179.1L740.7,179.1z"/></g>
</svg>